<svg width="12" height="12" viewBox="0 0 12 12" fill="none" xmlns="http://www.w3.org/2000/svg">
<path d="M5.49992 6.56702V8.73371C5.49992 8.87559 5.54778 8.99439 5.6435 9.09011C5.73922 9.18583 5.85802 9.23369 5.9999 9.23369C6.14178 9.23369 6.26058 9.18583 6.3563 9.09011C6.45202 8.99439 6.49989 8.87559 6.49989 8.73371V6.56702H8.66657C8.80845 6.56702 8.92725 6.51916 9.02297 6.42344C9.11869 6.32772 9.16655 6.20892 9.16655 6.06704C9.16655 5.92516 9.11869 5.80636 9.02297 5.71064C8.92725 5.61492 8.80845 5.56706 8.66657 5.56706H6.49989V3.40037C6.49989 3.2585 6.45202 3.1397 6.3563 3.04398C6.26058 2.94825 6.14178 2.90039 5.9999 2.90039C5.85802 2.90039 5.73922 2.94825 5.6435 3.04398C5.54778 3.1397 5.49992 3.2585 5.49992 3.40037V5.56706H3.33324C3.19136 5.56706 3.07256 5.61492 2.97684 5.71064C2.88111 5.80636 2.83325 5.92516 2.83325 6.06704C2.83325 6.20892 2.88111 6.32772 2.97684 6.42344C3.07256 6.51916 3.19136 6.56702 3.33324 6.56702H5.49992ZM1.53839 11.7337C1.20163 11.7337 0.916585 11.617 0.683252 11.3837C0.449919 11.1504 0.333252 10.8653 0.333252 10.5286V1.60552C0.333252 1.26877 0.449919 0.983724 0.683252 0.750391C0.916585 0.517057 1.20163 0.400391 1.53839 0.400391H10.4614C10.7982 0.400391 11.0832 0.517057 11.3166 0.750391C11.5499 0.983724 11.6666 1.26877 11.6666 1.60552V10.5286C11.6666 10.8653 11.5499 11.1504 11.3166 11.3837C11.0832 11.617 10.7982 11.7337 10.4614 11.7337H1.53839ZM1.53839 10.7337H10.4614C10.5127 10.7337 10.5597 10.7123 10.6025 10.6696C10.6452 10.6269 10.6666 10.5798 10.6666 10.5286V1.60552C10.6666 1.55424 10.6452 1.50722 10.6025 1.46447C10.5597 1.42174 10.5127 1.40037 10.4614 1.40037H1.53839C1.4871 1.40037 1.44008 1.42174 1.39734 1.46447C1.3546 1.50722 1.33324 1.55424 1.33324 1.60552V10.5286C1.33324 10.5798 1.3546 10.6269 1.39734 10.6696C1.44008 10.7123 1.4871 10.7337 1.53839 10.7337Z" fill="white"/>
</svg>
