<svg width="16" height="16" viewBox="0 0 16 16" fill="none" xmlns="http://www.w3.org/2000/svg">
<path d="M9.8874 7.9999L4.8656 2.9781C4.73313 2.84562 4.66859 2.68794 4.672 2.50504C4.67543 2.32212 4.74338 2.16444 4.87585 2.03197C5.00833 1.89949 5.16602 1.83325 5.34892 1.83325C5.53182 1.83325 5.68951 1.89949 5.82199 2.03197L10.9258 7.14607C11.0463 7.26658 11.1357 7.40162 11.1938 7.55119C11.2519 7.70076 11.281 7.85034 11.281 7.9999C11.281 8.14947 11.2519 8.29904 11.1938 8.44862C11.1357 8.59819 11.0463 8.73322 10.9258 8.85374L5.81174 13.9678C5.67926 14.1003 5.52328 14.1648 5.34379 14.1614C5.16431 14.158 5.00833 14.0901 4.87585 13.9576C4.74338 13.8251 4.67714 13.6674 4.67714 13.4845C4.67714 13.3016 4.74338 13.1439 4.87585 13.0115L9.8874 7.9999Z" fill="#333236"/>
</svg>
