<svg width="8" height="15" viewBox="0 0 8 15" fill="none" xmlns="http://www.w3.org/2000/svg">
<path d="M6.22562 7.49998L0.576099 1.85046C0.427061 1.70142 0.354461 1.52402 0.358299 1.31826C0.362149 1.11248 0.438592 0.935082 0.58763 0.786057C0.736667 0.637019 0.914067 0.5625 1.11983 0.5625C1.32559 0.5625 1.50299 0.637019 1.65203 0.786057L7.39386 6.53942C7.52944 6.67499 7.62992 6.82691 7.69531 6.99518C7.76068 7.16345 7.79337 7.33172 7.79337 7.49998C7.79337 7.66824 7.76068 7.83651 7.69531 8.00479C7.62992 8.17305 7.52944 8.32497 7.39386 8.46054L1.6405 14.2139C1.49146 14.3629 1.31598 14.4355 1.11405 14.4317C0.912142 14.4279 0.736667 14.3514 0.58763 14.2024C0.438592 14.0533 0.364073 13.8759 0.364073 13.6702C0.364073 13.4644 0.438592 13.287 0.58763 13.138L6.22562 7.49998Z" fill="#333236"/>
</svg>
