<svg width="16" height="16" viewBox="0 0 16 16" fill="none" xmlns="http://www.w3.org/2000/svg">
<path d="M6.1126 8.0001L11.1344 13.0219C11.2669 13.1544 11.3314 13.3121 11.328 13.495C11.3246 13.6779 11.2566 13.8356 11.1241 13.968C10.9917 14.1005 10.834 14.1667 10.6511 14.1667C10.4682 14.1667 10.3105 14.1005 10.178 13.968L5.07416 8.85393C4.95365 8.73342 4.86434 8.59838 4.80621 8.44881C4.7481 8.29924 4.71905 8.14966 4.71905 8.0001C4.71905 7.85053 4.7481 7.70096 4.80621 7.55138C4.86434 7.40181 4.95365 7.26678 5.07416 7.14626L10.1883 2.03217C10.3207 1.89969 10.4767 1.83515 10.6562 1.83856C10.8357 1.84199 10.9917 1.90994 11.1241 2.04241C11.2566 2.17489 11.3229 2.33258 11.3229 2.51548C11.3229 2.69838 11.2566 2.85607 11.1241 2.98855L6.1126 8.0001Z" fill="#333236"/>
</svg>
