<svg width="16" height="16" viewBox="0 0 16 16" fill="none" xmlns="http://www.w3.org/2000/svg">
<g id="add_FILL0_wght500_GRAD0_opsz24 1">
<path id="Vector" d="M7.31099 8.68954H4.32417C4.13071 8.68954 3.96744 8.623 3.83437 8.48993C3.7013 8.35686 3.63477 8.1936 3.63477 8.00014C3.63477 7.80669 3.7013 7.64343 3.83437 7.51035C3.96744 7.37728 4.13071 7.31075 4.32417 7.31075H7.31099V4.32393C7.31099 4.13047 7.37753 3.9672 7.5106 3.83413C7.64367 3.70106 7.80693 3.63452 8.00039 3.63452C8.19384 3.63452 8.3571 3.70106 8.49017 3.83413C8.62325 3.9672 8.68978 4.13047 8.68978 4.32393V7.31075H11.6766C11.8701 7.31075 12.0333 7.37728 12.1664 7.51035C12.2995 7.64343 12.366 7.80669 12.366 8.00014C12.366 8.1936 12.2995 8.35686 12.1664 8.48993C12.0333 8.623 11.8701 8.68954 11.6766 8.68954H8.68978V11.6764C8.68978 11.8698 8.62325 12.0331 8.49017 12.1662C8.3571 12.2992 8.19384 12.3658 8.00039 12.3658C7.80693 12.3658 7.64367 12.2992 7.5106 12.1662C7.37753 12.0331 7.31099 11.8698 7.31099 11.6764V8.68954Z" fill="#5534DA"/>
</g>
</svg>
