<svg width="16" height="16" viewBox="0 0 16 16" fill="none" xmlns="http://www.w3.org/2000/svg">
<g id="add_FILL0_wght500_GRAD0_opsz24 1">
<path id="Vector" d="M7.24209 8.75827H3.95659C3.74378 8.75827 3.56419 8.68508 3.41781 8.5387C3.27143 8.39233 3.19824 8.21274 3.19824 7.99994C3.19824 7.78714 3.27143 7.60755 3.41781 7.46117C3.56419 7.31479 3.74378 7.2416 3.95659 7.2416H7.24209V3.9561C7.24209 3.74329 7.31528 3.5637 7.46166 3.41732C7.60804 3.27094 7.78763 3.19775 8.00043 3.19775C8.21323 3.19775 8.39281 3.27094 8.53919 3.41732C8.68557 3.5637 8.75876 3.74329 8.75876 3.9561V7.2416H12.0443C12.2571 7.2416 12.4367 7.31479 12.583 7.46117C12.7294 7.60755 12.8026 7.78714 12.8026 7.99994C12.8026 8.21274 12.7294 8.39233 12.583 8.5387C12.4367 8.68508 12.2571 8.75827 12.0443 8.75827H8.75876V12.0438C8.75876 12.2566 8.68557 12.4362 8.53919 12.5826C8.39281 12.7289 8.21323 12.8021 8.00043 12.8021C7.78763 12.8021 7.60804 12.7289 7.46166 12.5826C7.31528 12.4362 7.24209 12.2566 7.24209 12.0438V8.75827Z" fill="#5534DA"/>
</g>
</svg>
