<svg width="20" height="20" viewBox="0 0 20 20" fill="none" xmlns="http://www.w3.org/2000/svg">
<g id="more_vert_FILL0_wght300_GRAD0_opsz24">
<path id="Vector" d="M9.99998 16.0577C9.65624 16.0577 9.36198 15.9353 9.11719 15.6905C8.8724 15.4457 8.75 15.1515 8.75 14.8077C8.75 14.464 8.8724 14.1697 9.11719 13.9249C9.36198 13.6801 9.65624 13.5577 9.99998 13.5577C10.3437 13.5577 10.638 13.6801 10.8828 13.9249C11.1276 14.1697 11.25 14.464 11.25 14.8077C11.25 15.1515 11.1276 15.4457 10.8828 15.6905C10.638 15.9353 10.3437 16.0577 9.99998 16.0577ZM9.99998 11.25C9.65624 11.25 9.36198 11.1276 9.11719 10.8828C8.8724 10.638 8.75 10.3438 8.75 10C8.75 9.65629 8.8724 9.36203 9.11719 9.11724C9.36198 8.87245 9.65624 8.75005 9.99998 8.75005C10.3437 8.75005 10.638 8.87245 10.8828 9.11724C11.1276 9.36203 11.25 9.65629 11.25 10C11.25 10.3438 11.1276 10.638 10.8828 10.8828C10.638 11.1276 10.3437 11.25 9.99998 11.25ZM9.99998 6.44232C9.65624 6.44232 9.36198 6.31992 9.11719 6.07513C8.8724 5.83036 8.75 5.53609 8.75 5.19234C8.75 4.84861 8.8724 4.55434 9.11719 4.30955C9.36198 4.06477 9.65624 3.94238 9.99998 3.94238C10.3437 3.94238 10.638 4.06477 10.8828 4.30955C11.1276 4.55434 11.25 4.84861 11.25 5.19234C11.25 5.53609 11.1276 5.83036 10.8828 6.07513C10.638 6.31992 10.3437 6.44232 9.99998 6.44232Z" fill="black"/>
</g>
</svg>
